<?xml version="1.0" encoding="utf-8"?>
<!-- Generator: Adobe Illustrator 27.3.1, SVG Export Plug-In . SVG Version: 6.00 Build 0)  -->
<svg version="1.1" id="Layer_1" xmlns="http://www.w3.org/2000/svg" xmlns:xlink="http://www.w3.org/1999/xlink" x="0px" y="0px"
	 width="1205.4px" height="610.4px" viewBox="0 0 1205.4 610.4" style="enable-background:new 0 0 1205.4 610.4;"
	 xml:space="preserve">
<style type="text/css">
	.st0{fill:url(#SVGID_1_);}
	.st1{fill:#EDEEED;}
	.st2{fill:url(#SVGID_00000118376572045177265140000006697206776704598414_);}
	.st3{fill:url(#SVGID_00000132801214971056941060000006787456276359668130_);}
	.st4{fill:url(#SVGID_00000054242628240144380790000012938679419088579730_);}
	.st5{fill:url(#SVGID_00000111873440636772365210000012000642333279702954_);}
	.st6{fill:url(#SVGID_00000021829121503972171000000012091915798308957827_);}
	.st7{fill:url(#SVGID_00000028322045154969875420000001821372761236110987_);}
	.st8{fill:url(#SVGID_00000076584207874282537200000001046527614883729028_);}
	.st9{fill:url(#SVGID_00000037694203257108742060000000796148278061867652_);}
	.st10{fill:url(#SVGID_00000059288891167694338420000009862630822077516477_);}
	.st11{fill:url(#SVGID_00000105390291312489608350000016636837252920864445_);}
	.st12{fill:url(#SVGID_00000101820855100622517700000013412421686341252766_);}
	.st13{fill:url(#SVGID_00000171708179215891977740000007651297407203506103_);}
	.st14{fill:url(#SVGID_00000173853657353245432830000005935682292706931107_);}
	.st15{fill:url(#SVGID_00000133511627672186405710000005819286161606696365_);}
	.st16{fill:url(#SVGID_00000029036488832877751630000002417529770168519571_);}
</style>
<g>
	<g>
		<g>
			<linearGradient id="SVGID_1_" gradientUnits="userSpaceOnUse" x1="88.6725" y1="371.8405" x2="598.4857" y2="20.8216">
				<stop  offset="0.1263" style="stop-color:#FFFFFF"/>
				<stop  offset="1" style="stop-color:#000000"/>
			</linearGradient>
			<polygon class="st0" points="271.7,30.7 169.9,208.3 47,208.2 215.7,499.5 342.7,277.9 182,277.8 272.2,120.3 364.3,279 
				415.5,279.1 			"/>
		</g>
		<g>
			<g>
				<path class="st1" d="M385.3,348.6h29.8l76.2,104.9h0.5V348.6h32v154.6H494l-76.2-104.7h-0.5v104.7h-32V348.6z"/>
				<path class="st1" d="M556.8,348.6H590v154.6h-33.2V348.6z"/>
				<path class="st1" d="M623,348.6h107.3l24.4,22.1V414l-9.8,9.1l17.3,15.9v40.4l-26.4,23.9H623V348.6z M713.1,413.3l8.8-8v-23.9
					l-8.6-7.7h-57.9v39.5H713.1z M719,478l10.5-9.5v-21.6l-10.5-9.5h-63.5V478H719z"/>
				<path class="st1" d="M787.9,348.6h33.2v154.6h-33.2V348.6z"/>
				<path class="st1" d="M988.5,452v51.2h-33.2v-44.4L940.6,444h-53.3v59.2h-33.2V348.6h107.3l26.1,23.9v46.8l-16.6,15.2L988.5,452z
					 M887.3,419.3h58.9l8.6-7.7v-30l-8.6-7.7h-58.9V419.3z"/>
				<path class="st1" d="M1019,476.7V348.6h33.2v117.7l12.5,11.3h47.9l12.5-11.3V348.6h33.2v128.1l-29.3,26.5h-80.6L1019,476.7z"/>
			</g>
			<path class="st1" d="M854.1,536h7.9l20.1,29.6h0.1V536h8.5v43.7h-7.9l-20.1-29.6h-0.1v29.6h-8.5V536z"/>
			<path class="st1" d="M899.1,536h32.7v7.2h-23.9v11h22v7.1h-22v11.2h23.9v7.2h-32.7V536z"/>
			<path class="st1" d="M948.5,543.2H935V536h35.8v7.2h-13.5v36.5h-8.8V543.2z"/>
			<path class="st1" d="M973.4,536h8.8l5.5,30.8h0.3l9-30.8h6.6l8.8,30.8h0.3l5.5-30.8h8.8l-9.4,43.7h-8.2l-9-30.7h-0.3l-9.2,30.7
				h-8.2L973.4,536z"/>
			<path class="st1" d="M1031.4,572.5v-29.3l7.4-7.2h23.2l7.4,7.2v29.3l-7.4,7.2h-23.2L1031.4,572.5z M1057.5,572.5l3.3-3.2v-22.8
				l-3.3-3.2h-13.9l-3.3,3.2v22.8l3.3,3.2H1057.5z"/>
			<path class="st1" d="M1112.8,565.2v14.5h-8.8v-12.5l-3.9-4.2h-14.1v16.7h-8.8V536h28.3l6.9,6.7V556l-4.4,4.3L1112.8,565.2z
				 M1086.1,556h15.6l2.3-2.2v-8.5l-2.3-2.2h-15.6V556z"/>
			<path class="st1" d="M1120.9,536h8.8v18.3h6.8l10.9-18.3h9.9l-13.2,21.8l14.3,21.9h-10.1l-11.9-18.2h-6.8v18.2h-8.8V536z"/>
		</g>
	</g>
	<g>
		<g>
			
				<linearGradient id="SVGID_00000084491435954534757650000007992852860608329914_" gradientUnits="userSpaceOnUse" x1="460.233" y1="640.7237" x2="761.2339" y2="119.3748">
				<stop  offset="0" style="stop-color:#054F97"/>
				<stop  offset="1" style="stop-color:#E44E96"/>
			</linearGradient>
			<polygon style="fill:url(#SVGID_00000084491435954534757650000007992852860608329914_);" points="271.7,30.7 169.9,208.3 
				47,208.2 215.7,499.5 342.7,277.9 182,277.8 272.2,120.3 364.3,279 415.5,279.1 			"/>
			
				<linearGradient id="SVGID_00000165195328380284577440000003747989362227324323_" gradientUnits="userSpaceOnUse" x1="460.233" y1="640.7237" x2="761.2339" y2="119.3748">
				<stop  offset="0" style="stop-color:#054F97"/>
				<stop  offset="1" style="stop-color:#E44E96"/>
			</linearGradient>
			<path style="fill:url(#SVGID_00000165195328380284577440000003747989362227324323_);" d="M271.7,32.7l142.1,245.4l-48.9-0.1
				L273,119.8l-0.9-1.5l-0.9,1.5l-90.2,157.5l-0.9,1.5l1.7,0l159,0.1L215.7,497.5L48.7,209.2l121.2,0.1l0.6,0l0.3-0.5L271.7,32.7
				 M271.7,30.7L169.9,208.3L47,208.2l168.7,291.3l127.1-221.6L182,277.8l90.2-157.5L364.3,279l51.2,0.1L271.7,30.7L271.7,30.7z"/>
		</g>
		<g>
			<g>
				
					<linearGradient id="SVGID_00000065781067855324602050000016914876478660430495_" gradientUnits="userSpaceOnUse" x1="460.233" y1="640.7237" x2="761.2339" y2="119.3748">
					<stop  offset="0" style="stop-color:#054F97"/>
					<stop  offset="1" style="stop-color:#E44E96"/>
				</linearGradient>
				<path style="fill:url(#SVGID_00000065781067855324602050000016914876478660430495_);" d="M385.3,348.6h29.8l76.2,104.9h0.5
					V348.6h32v154.6H494l-76.2-104.7h-0.5v104.7h-32V348.6z"/>
				
					<linearGradient id="SVGID_00000001657766327640007480000012119168468076723889_" gradientUnits="userSpaceOnUse" x1="460.233" y1="640.7237" x2="761.2339" y2="119.3748">
					<stop  offset="0" style="stop-color:#054F97"/>
					<stop  offset="1" style="stop-color:#E44E96"/>
				</linearGradient>
				<path style="fill:url(#SVGID_00000001657766327640007480000012119168468076723889_);" d="M556.8,348.6H590v154.6h-33.2V348.6z"
					/>
				
					<linearGradient id="SVGID_00000114753084865253208540000007526498330110451610_" gradientUnits="userSpaceOnUse" x1="460.233" y1="640.7237" x2="761.2339" y2="119.3748">
					<stop  offset="0" style="stop-color:#054F97"/>
					<stop  offset="1" style="stop-color:#E44E96"/>
				</linearGradient>
				<path style="fill:url(#SVGID_00000114753084865253208540000007526498330110451610_);" d="M623,348.6h107.3l24.4,22.1V414
					l-9.8,9.1l17.3,15.9v40.4l-26.4,23.9H623V348.6z M713.1,413.3l8.8-8v-23.9l-8.6-7.7h-57.9v39.5H713.1z M719,478l10.5-9.5v-21.6
					l-10.5-9.5h-63.5V478H719z"/>
				
					<linearGradient id="SVGID_00000171705771603669837390000007014336293661683114_" gradientUnits="userSpaceOnUse" x1="460.233" y1="640.7237" x2="761.2339" y2="119.3748">
					<stop  offset="0" style="stop-color:#054F97"/>
					<stop  offset="1" style="stop-color:#E44E96"/>
				</linearGradient>
				<path style="fill:url(#SVGID_00000171705771603669837390000007014336293661683114_);" d="M787.9,348.6h33.2v154.6h-33.2V348.6z"
					/>
				
					<linearGradient id="SVGID_00000080911350079567745170000010565174964123669683_" gradientUnits="userSpaceOnUse" x1="460.233" y1="640.7237" x2="761.2339" y2="119.3748">
					<stop  offset="0" style="stop-color:#054F97"/>
					<stop  offset="1" style="stop-color:#E44E96"/>
				</linearGradient>
				<path style="fill:url(#SVGID_00000080911350079567745170000010565174964123669683_);" d="M988.5,452v51.2h-33.2v-44.4L940.6,444
					h-53.3v59.2h-33.2V348.6h107.3l26.1,23.9v46.8l-16.6,15.2L988.5,452z M887.3,419.3h58.9l8.6-7.7v-30l-8.6-7.7h-58.9V419.3z"/>
				
					<linearGradient id="SVGID_00000136382818495396134700000010803873465427999905_" gradientUnits="userSpaceOnUse" x1="460.233" y1="640.7237" x2="761.2339" y2="119.3748">
					<stop  offset="0" style="stop-color:#054F97"/>
					<stop  offset="1" style="stop-color:#E44E96"/>
				</linearGradient>
				<path style="fill:url(#SVGID_00000136382818495396134700000010803873465427999905_);" d="M1019,476.7V348.6h33.2v117.7
					l12.5,11.3h47.9l12.5-11.3V348.6h33.2v128.1l-29.3,26.5h-80.6L1019,476.7z"/>
			</g>
			
				<linearGradient id="SVGID_00000127040601010062349140000007835140525856899249_" gradientUnits="userSpaceOnUse" x1="460.233" y1="640.7237" x2="761.2339" y2="119.3748">
				<stop  offset="0" style="stop-color:#054F97"/>
				<stop  offset="1" style="stop-color:#E44E96"/>
			</linearGradient>
			<path style="fill:url(#SVGID_00000127040601010062349140000007835140525856899249_);" d="M854.1,536h7.9l20.1,29.6h0.1V536h8.5
				v43.7h-7.9l-20.1-29.6h-0.1v29.6h-8.5V536z"/>
			
				<linearGradient id="SVGID_00000092419402648846243540000001300238821913647793_" gradientUnits="userSpaceOnUse" x1="460.233" y1="640.7237" x2="761.2339" y2="119.3748">
				<stop  offset="0" style="stop-color:#054F97"/>
				<stop  offset="1" style="stop-color:#E44E96"/>
			</linearGradient>
			<path style="fill:url(#SVGID_00000092419402648846243540000001300238821913647793_);" d="M899.1,536h32.7v7.2h-23.9v11h22v7.1
				h-22v11.2h23.9v7.2h-32.7V536z"/>
			
				<linearGradient id="SVGID_00000139270818525063533620000013418271284940217524_" gradientUnits="userSpaceOnUse" x1="460.233" y1="640.7237" x2="761.2339" y2="119.3748">
				<stop  offset="0" style="stop-color:#054F97"/>
				<stop  offset="1" style="stop-color:#E44E96"/>
			</linearGradient>
			<path style="fill:url(#SVGID_00000139270818525063533620000013418271284940217524_);" d="M948.5,543.2H935V536h35.8v7.2h-13.5
				v36.5h-8.8V543.2z"/>
			
				<linearGradient id="SVGID_00000078028728910097193770000007684185037079388071_" gradientUnits="userSpaceOnUse" x1="460.233" y1="640.7237" x2="761.2339" y2="119.3748">
				<stop  offset="0" style="stop-color:#054F97"/>
				<stop  offset="1" style="stop-color:#E44E96"/>
			</linearGradient>
			<path style="fill:url(#SVGID_00000078028728910097193770000007684185037079388071_);" d="M973.4,536h8.8l5.5,30.8h0.3l9-30.8h6.6
				l8.8,30.8h0.3l5.5-30.8h8.8l-9.4,43.7h-8.2l-9-30.7h-0.3l-9.2,30.7h-8.2L973.4,536z"/>
			
				<linearGradient id="SVGID_00000111163399916938655220000005420719983073711494_" gradientUnits="userSpaceOnUse" x1="460.233" y1="640.7237" x2="761.2339" y2="119.3748">
				<stop  offset="0" style="stop-color:#054F97"/>
				<stop  offset="1" style="stop-color:#E44E96"/>
			</linearGradient>
			<path style="fill:url(#SVGID_00000111163399916938655220000005420719983073711494_);" d="M1031.4,572.5v-29.3l7.4-7.2h23.2
				l7.4,7.2v29.3l-7.4,7.2h-23.2L1031.4,572.5z M1057.5,572.5l3.3-3.2v-22.8l-3.3-3.2h-13.9l-3.3,3.2v22.8l3.3,3.2H1057.5z"/>
			
				<linearGradient id="SVGID_00000025425978150600674960000013348764956503605912_" gradientUnits="userSpaceOnUse" x1="460.233" y1="640.7237" x2="761.2339" y2="119.3748">
				<stop  offset="0" style="stop-color:#054F97"/>
				<stop  offset="1" style="stop-color:#E44E96"/>
			</linearGradient>
			<path style="fill:url(#SVGID_00000025425978150600674960000013348764956503605912_);" d="M1112.8,565.2v14.5h-8.8v-12.5l-3.9-4.2
				h-14.1v16.7h-8.8V536h28.3l6.9,6.7V556l-4.4,4.3L1112.8,565.2z M1086.1,556h15.6l2.3-2.2v-8.5l-2.3-2.2h-15.6V556z"/>
			
				<linearGradient id="SVGID_00000183228053540712087610000010616366179180070073_" gradientUnits="userSpaceOnUse" x1="460.233" y1="640.7237" x2="761.2339" y2="119.3748">
				<stop  offset="0" style="stop-color:#054F97"/>
				<stop  offset="1" style="stop-color:#E44E96"/>
			</linearGradient>
			<path style="fill:url(#SVGID_00000183228053540712087610000010616366179180070073_);" d="M1120.9,536h8.8v18.3h6.8l10.9-18.3h9.9
				l-13.2,21.8l14.3,21.9h-10.1l-11.9-18.2h-6.8v18.2h-8.8V536z"/>
		</g>
	</g>
</g>
</svg>
